<svg width="86px" height="94px" viewBox="0 0 86 94" version="1.1" xmlns="http://www.w3.org/2000/svg" xmlns:xlink="http://www.w3.org/1999/xlink">
  <g stroke="none" strokeWidth="1" fill="none" fillRule="evenodd">
    <g transform="translate(-1272.000000, -1775.000000)" fill="#f8f8f8" fillRule="nonzero">
      <path d="M1335.79636,1837.87425 C1329.39718,1835.70833 1326.10964,1830.98092 1324.44045,1827.17 C1333.65809,1821.63183 1338.45455,1808.4875 1338.45455,1798.5 C1338.45455,1785.52017 1327.95473,1775 1315,1775 C1302.04527,1775 1291.54545,1785.52017 1291.54545,1798.5 C1291.54545,1808.49533 1296.34582,1821.6475 1305.57518,1827.17783 C1303.91382,1831.02008 1300.63409,1835.78275 1294.25055,1837.85858 C1282.99236,1841.51283 1272,1842.70742 1272,1861.16667 L1272,1869 L1358,1869 L1358,1861.16667 C1358,1842.98158 1347.49627,1841.834 1335.79636,1837.87425 Z" id="Shape">
      </path>
    </g>
  </g>
</svg>