<svg xmlns="http://www.w3.org/2000/svg" xmlns:xlink="http://www.w3.org/1999/xlink" x="0px" y="0px" width="24px" height="1072px" viewBox="0 0 24 1072">
 <!-- icon name zoom-in--> 
<g transform="translate(4, 0)"><g class="nc-icon-wrapper" fill="#444444"><path fill="#444444" d="M12.7,11.3c0.9-1.2,1.4-2.6,1.4-4.2C14.1,3.2,11,0,7.1,0S0,3.2,0,7.1c0,3.9,3.2,7.1,7.1,7.1 c1.6,0,3.1-0.5,4.2-1.4l3,3c0.2,0.2,0.5,0.3,0.7,0.3s0.5-0.1,0.7-0.3c0.4-0.4,0.4-1,0-1.4L12.7,11.3z M7.1,12.1 C4.3,12.1,2,9.9,2,7.1S4.3,2,7.1,2s5.1,2.3,5.1,5.1S9.9,12.1,7.1,12.1z"/> <polygon data-color="color-2" fill="#444444" points="8,4 6,4 6,6 4,6 4,8 6,8 6,10 8,10 8,8 10,8 10,6 8,6 "/></g></g>

 <!-- icon name trophy--> 
<g transform="translate(4, 16)"><g class="nc-icon-wrapper" fill="#444444"><path fill="#444444" d="M0,0v4c0,2.0654778,1.6036862,4,4.1414185,4c0.3443604,1.3294678,1.3492432,2.3786011,2.6487427,2.793457 C6.6119995,11.7305908,6.2819824,12.9043579,5.6672363,14H4v2h8v-2h-1.6672363 c-0.6147461-1.0956421-0.9447632-2.2694092-1.1229248-3.206543C10.5093384,10.3786011,11.5142212,9.3294678,11.8585815,8 C14.3879404,8,16,6.0717807,16,4V0H0z M2,4V2h2v4C2.8974609,6,2,5.1030273,2,4z M14,4c0,1.1030273-0.8974609,2-2,2V2h2V4z"/></g></g>

 <!-- icon name trash--> 
<g transform="translate(4, 32)"><g class="nc-icon-wrapper" fill="#444444"><path fill="#444444" d="M2,6v8c0,1.1,0.9,2,2,2h8c1.1,0,2-0.9,2-2V6H2z"/> <path data-color="color-2" fill="#444444" d="M12,3V1c0-0.6-0.4-1-1-1H5C4.4,0,4,0.4,4,1v2H0v2h16V3H12z M10,3H6V2h4V3z"/></g></g>

 <!-- icon name tail-up--> 
<g transform="translate(4, 48)"><g class="nc-icon-wrapper" fill="#444444"><polygon fill="#444444" points="1.3,6.7 2.7,8.1 7,3.8 7,16 9,16 9,3.8 13.3,8.1 14.7,6.7 8,0 "/></g></g>

 <!-- icon name tail-right--> 
<g transform="translate(4, 64)"><g class="nc-icon-wrapper" fill="#444444"><polygon fill="#444444" points="9.3,1.3 7.9,2.7 12.2,7 0,7 0,9 12.2,9 7.9,13.3 9.3,14.7 16,8 "/></g></g>

 <!-- icon name tail-left--> 
<g transform="translate(4, 80)"><g class="nc-icon-wrapper" fill="#444444"><polygon fill="#444444" points="6.7,14.7 8.1,13.3 3.8,9 16,9 16,7 3.8,7 8.1,2.7 6.7,1.3 0,8 "/></g></g>

 <!-- icon name tail-down--> 
<g transform="translate(4, 96)"><g class="nc-icon-wrapper" fill="#444444"><polygon fill="#444444" points="14.7,9.3 13.3,7.9 9,12.2 9,0 7,0 7,12.2 2.7,7.9 1.3,9.3 8,16 "/></g></g>

 <!-- icon name tag--> 
<g transform="translate(4, 112)"><g class="nc-icon-wrapper" fill="#444444"><path fill="#444444" d="M15.7,8.3l-8-8C7.5,0.1,7.3,0,7,0H1C0.4,0,0,0.4,0,1v6c0,0.3,0.1,0.5,0.3,0.7l8,8C8.5,15.9,8.7,16,9,16 s0.5-0.1,0.7-0.3l6-6C16.1,9.3,16.1,8.7,15.7,8.3z M4,5C3.4,5,3,4.6,3,4s0.4-1,1-1c0.6,0,1,0.4,1,1S4.6,5,4,5z"/></g></g>

 <!-- icon name support-17--> 
<g transform="translate(4, 128)"><g class="nc-icon-wrapper" fill="#444444"><path fill="#444444" d="M8,0C3.6,0,0,3.6,0,8c0,4.4,3.6,8,8,8s8-3.6,8-8C16,3.6,12.4,0,8,0z M8,10c-1.1,0-2-0.9-2-2c0-1.1,0.9-2,2-2 s2,0.9,2,2C10,9.1,9.1,10,8,10z M8,2c0.9,0,1.8,0.2,2.6,0.6L9.044,4.156c-0.761-0.207-1.327-0.207-2.089,0L5.4,2.6 C6.2,2.2,7.1,2,8,2z M2,8c0-0.9,0.2-1.8,0.6-2.6l1.556,1.556c-0.207,0.761-0.207,1.327,0,2.089L2.6,10.6C2.2,9.8,2,8.9,2,8z M8,14 c-0.9,0-1.8-0.2-2.6-0.6l1.556-1.556c0.761,0.207,1.327,0.207,2.089,0L10.6,13.4C9.8,13.8,8.9,14,8,14z M13.4,10.6l-1.556-1.556 c0.207-0.761,0.207-1.327,0-2.089L13.4,5.4C13.8,6.2,14,7.1,14,8C14,8.9,13.8,9.8,13.4,10.6z"/></g></g>

 <!-- icon name stre-up--> 
<g transform="translate(4, 144)"><g class="nc-icon-wrapper" fill="#444444"><path fill="#444444" d="M15.108,12.41L8,6.317L0.892,12.41l-1.302-1.519l7.759-6.65c0.375-0.322,0.927-0.322,1.302,0l7.759,6.65 L15.108,12.41z"/></g></g>

 <!-- icon name stre-right--> 
<g transform="translate(4, 160)"><g class="nc-icon-wrapper" fill="#444444"><path fill="#444444" d="M5.108,16.41L3.59,15.108L9.683,8L3.59,0.892L5.108-0.41l6.651,7.76c0.321,0.374,0.321,0.927,0,1.301 L5.108,16.41z"/></g></g>

 <!-- icon name stre-left--> 
<g transform="translate(4, 176)"><g class="nc-icon-wrapper" fill="#444444"><path fill="#444444" d="M10.892,16.41L4.241,8.65c-0.321-0.374-0.321-0.927,0-1.301l6.651-7.76l1.519,1.302L6.317,8l6.093,7.108 L10.892,16.41z"/></g></g>

 <!-- icon name stre-down--> 
<g transform="translate(4, 192)"><g class="nc-icon-wrapper" fill="#444444"><path fill="#444444" d="M8,12c-0.232,0-0.463-0.08-0.651-0.241l-7.759-6.65L0.892,3.59L8,9.683l7.108-6.093l1.302,1.519l-7.759,6.65 C8.463,11.92,8.232,12,8,12z"/></g></g>

 <!-- icon name small-up--> 
<g transform="translate(4, 208)"><g class="nc-icon-wrapper" fill="#444444"><polygon fill="#444444" points="12,11.4 8,7.4 4,11.4 2.6,10 8,4.6 13.4,10 "/></g></g>

 <!-- icon name small-triangle-up--> 
<g transform="translate(4, 224)"><g class="nc-icon-wrapper" fill="#444444"><polygon fill="#444444" points="13,11 8,5 3,11 "/></g></g>

 <!-- icon name small-triangle-right--> 
<g transform="translate(4, 240)"><g class="nc-icon-wrapper" fill="#444444"><polygon fill="#444444" points="5,13 11,8 5,3 "/></g></g>

 <!-- icon name small-triangle-left--> 
<g transform="translate(4, 256)"><g class="nc-icon-wrapper" fill="#444444"><polygon fill="#444444" points="11,3 5,8 11,13 "/></g></g>

 <!-- icon name small-triangle-down--> 
<g transform="translate(4, 272)"><g class="nc-icon-wrapper" fill="#444444"><polygon fill="#444444" points="3,5 8,11 13,5 "/></g></g>

 <!-- icon name small-right--> 
<g transform="translate(4, 288)"><g class="nc-icon-wrapper" fill="#444444"><polygon fill="#444444" points="6,13.4 4.6,12 8.6,8 4.6,4 6,2.6 11.4,8 "/></g></g>

 <!-- icon name small-left--> 
<g transform="translate(4, 304)"><g class="nc-icon-wrapper" fill="#444444"><polygon fill="#444444" points="10,13.4 4.6,8 10,2.6 11.4,4 7.4,8 11.4,12 "/></g></g>

 <!-- icon name small-down--> 
<g transform="translate(4, 320)"><g class="nc-icon-wrapper" fill="#444444"><polygon fill="#444444" points="8,11.4 2.6,6 4,4.6 8,8.6 12,4.6 13.4,6 "/></g></g>

 <!-- icon name single-content-03--> 
<g transform="translate(4, 336)"><g class="nc-icon-wrapper" fill="#444444"><path fill="#444444" d="M14,0H2C1.4,0,1,0.4,1,1v14c0,0.6,0.4,1,1,1h12c0.6,0,1-0.4,1-1V1C15,0.4,14.6,0,14,0z M8,13H4v-2h4V13z M12,9H4V7h8V9z M12,5H4V3h8V5z"/></g></g>

 <!-- icon name single-body--> 
<g transform="translate(4, 352)"><g class="nc-icon-wrapper" fill="#444444"><circle fill="#444444" cx="8" cy="4" r="4"/> <path data-color="color-2" fill="#444444" d="M16,13.2c0-0.783-0.45-1.495-1.163-1.818C13.539,10.795,11.192,10,8,10 s-5.539,0.795-6.837,1.382C0.45,11.705,0,12.417,0,13.2V16h16V13.2z"/></g></g>

 <!-- icon name simple-remove--> 
<g transform="translate(4, 368)"><g class="nc-icon-wrapper" fill="#444444"><path fill="#444444" d="M14.7,1.3c-0.4-0.4-1-0.4-1.4,0L8,6.6L2.7,1.3c-0.4-0.4-1-0.4-1.4,0s-0.4,1,0,1.4L6.6,8l-5.3,5.3 c-0.4,0.4-0.4,1,0,1.4C1.5,14.9,1.7,15,2,15s0.5-0.1,0.7-0.3L8,9.4l5.3,5.3c0.2,0.2,0.5,0.3,0.7,0.3s0.5-0.1,0.7-0.3 c0.4-0.4,0.4-1,0-1.4L9.4,8l5.3-5.3C15.1,2.3,15.1,1.7,14.7,1.3z"/></g></g>

 <!-- icon name simple-add--> 
<g transform="translate(4, 384)"><g class="nc-icon-wrapper" fill="#444444"><path fill="#444444" d="M15,7H9V1c0-0.6-0.4-1-1-1S7,0.4,7,1v6H1C0.4,7,0,7.4,0,8s0.4,1,1,1h6v6c0,0.6,0.4,1,1,1s1-0.4,1-1V9h6 c0.6,0,1-0.4,1-1S15.6,7,15,7z"/></g></g>

 <!-- icon name share-66--> 
<g transform="translate(4, 400)"><g class="nc-icon-wrapper" fill="#444444"><polygon data-color="color-2" fill="#444444" points="7,4 7,11 9,11 9,4 11.4,4 8,0 4.6,4 "/> <path fill="#444444" d="M15,16H1c-0.6,0-1-0.4-1-1V6c0-0.6,0.4-1,1-1h3v2H2v7h12V7h-2V5h3c0.6,0,1,0.4,1,1v9C16,15.6,15.6,16,15,16z "/></g></g>

 <!-- icon name share-2--> 
<g transform="translate(4, 416)"><g class="nc-icon-wrapper" fill="#444444"><path fill="#444444" d="M12,6c1.654,0,3-1.346,3-3s-1.346-3-3-3S9,1.346,9,3c0,0.223,0.029,0.439,0.075,0.649l-3.22,2.012 C5.343,5.254,4.704,5,4,5C2.346,5,1,6.346,1,8s1.346,3,3,3c0.704,0,1.343-0.254,1.855-0.661l3.22,2.012C9.029,12.561,9,12.777,9,13 c0,1.654,1.346,3,3,3s3-1.346,3-3s-1.346-3-3-3c-0.704,0-1.343,0.254-1.855,0.661l-3.22-2.012C6.971,8.439,7,8.223,7,8 S6.971,7.561,6.925,7.351l3.22-2.012C10.657,5.746,11.296,6,12,6z"/></g></g>

 <!-- icon name settings-gear-64--> 
<g transform="translate(4, 432)"><g class="nc-icon-wrapper" fill="#444444"><path fill="#444444" d="M13.3,5.2l1.1-2.1l-1.4-1.4l-2.1,1.1c-0.3-0.2-0.7-0.3-1.1-0.4L9,0H7L6.2,2.3C5.9,2.4,5.5,2.5,5.2,2.7 L3.1,1.6L1.6,3.1l1.1,2.1C2.5,5.5,2.4,5.9,2.3,6.2L0,7v2l2.3,0.8c0.1,0.4,0.3,0.7,0.4,1.1l-1.1,2.1l1.4,1.4l2.1-1.1 c0.3,0.2,0.7,0.3,1.1,0.4L7,16h2l0.8-2.3c0.4-0.1,0.7-0.3,1.1-0.4l2.1,1.1l1.4-1.4l-1.1-2.1c0.2-0.3,0.3-0.7,0.4-1.1L16,9V7 l-2.3-0.8C13.6,5.9,13.5,5.5,13.3,5.2z M8,11c-1.7,0-3-1.3-3-3s1.3-3,3-3s3,1.3,3,3S9.7,11,8,11z"/></g></g>

 <!-- icon name send--> 
<g transform="translate(4, 448)"><g class="nc-icon-wrapper" fill="#444444"><path fill="#444444" d="M3.6,9.6v4.9c0,0.7,0.8,1,1.3,0.5l2.3-2.7l4.7,3.5c0.4,0.3,1,0.1,1.1-0.4L16,0.9c0.1-0.6-0.4-1-1-0.8 L0.5,5.9c-0.5,0.2-0.6,0.9-0.2,1.3l1.6,1.2l4.6-2.2C6.9,6,7.2,6.5,6.9,6.7L3.6,9.6z"/></g></g>

 <!-- icon name select-83--> 
<g transform="translate(4, 464)"><g class="nc-icon-wrapper" fill="#444444"><polygon fill="#444444" points="2,6 14,6 8,0 "/> <polygon fill="#444444" points="8,16 14,10 2,10 "/></g></g>

 <!-- icon name refresh-69--> 
<g transform="translate(4, 480)"><g class="nc-icon-wrapper" fill="#444444"><path fill="#444444" d="M8.5,3c1.2,0,2.2,0.4,3.2,1H9v2h6V0h-2v2.5C11.7,1.5,10.2,1,8.5,1C4.6,1,1.3,4,1,7.9l2,0.2 C3.2,5.2,5.6,3,8.5,3z"/> <path data-color="color-2" fill="#444444" d="M7.5,13c-1.2,0-2.2-0.4-3.2-1H7v-2H1v6h2v-2.5c1.3,1,2.8,1.5,4.5,1.5c3.9,0,7.2-3,7.5-6.9 l-2-0.2C12.8,10.8,10.4,13,7.5,13z"/></g></g>

 <!-- icon name print--> 
<g transform="translate(4, 496)"><g class="nc-icon-wrapper" fill="#444444"><rect data-color="color-2" x="3" fill="#444444" width="10" height="3"/> <path fill="#444444" d="M15,5H1C0.4,5,0,5.4,0,6v6c0,0.6,0.4,1,1,1h2v2c0,0.6,0.4,1,1,1h8c0.6,0,1-0.4,1-1v-2h2c0.6,0,1-0.4,1-1V6 C16,5.4,15.6,5,15,5z M11,14H5V9h6V14z"/></g></g>

 <!-- icon name path-unite--> 
<g transform="translate(4, 512)"><g class="nc-icon-wrapper" fill="#444444"><polygon data-color="color-2" fill="#444444" points="13,3 13,11 16,11 16,0 5,0 5,3 "/> <rect x="0" y="5" fill="#444444" width="11" height="11"/></g></g>

 <!-- icon name multiple-11--> 
<g transform="translate(4, 528)"><g class="nc-icon-wrapper" fill="#444444"><path fill="#444444" d="M8,6L8,6C6.3,6,5,4.7,5,3v0c0-1.7,1.3-3,3-3h0c1.7,0,3,1.3,3,3v0C11,4.7,9.7,6,8,6z"/> <polygon fill="#444444" points="10,16 6,16 6,12 4,10 4,7 12,7 12,10 10,12 "/> <path data-color="color-2" fill="#444444" d="M2,5L2,5C0.9,5,0,4.1,0,3v0c0-1.1,0.9-2,2-2h0c1.1,0,2,0.9,2,2v0C4,4.1,3.1,5,2,5z"/> <polygon data-color="color-2" fill="#444444" points="3,10.4 3,6 0,6 0,9 1,10 1,14 4,14 4,11.4 "/> <path data-color="color-2" fill="#444444" d="M14,5L14,5c1.1,0,2-0.9,2-2v0c0-1.1-0.9-2-2-2h0c-1.1,0-2,0.9-2,2v0C12,4.1,12.9,5,14,5z"/> <polygon data-color="color-2" fill="#444444" points="13,10.4 13,6 16,6 16,9 15,10 15,14 12,14 12,11.4 "/></g></g>

 <!-- icon name menu-dots--> 
<g transform="translate(4, 544)"><g class="nc-icon-wrapper" fill="#444444"><circle data-color="color-2" fill="#444444" cx="8" cy="8" r="2"/> <circle fill="#444444" cx="2" cy="8" r="2"/> <circle fill="#444444" cx="14" cy="8" r="2"/></g></g>

 <!-- icon name menu-34--> 
<g transform="translate(4, 560)"><g class="nc-icon-wrapper" fill="#444444"><path data-color="color-2" fill="#444444" d="M15,7H1C0.4,7,0,7.4,0,8s0.4,1,1,1h14c0.6,0,1-0.4,1-1S15.6,7,15,7z"/> <path fill="#444444" d="M15,1H1C0.4,1,0,1.4,0,2s0.4,1,1,1h14c0.6,0,1-0.4,1-1S15.6,1,15,1z"/> <path fill="#444444" d="M15,13H1c-0.6,0-1,0.4-1,1s0.4,1,1,1h14c0.6,0,1-0.4,1-1S15.6,13,15,13z"/></g></g>

 <!-- icon name lock--> 
<g transform="translate(4, 576)"><g class="nc-icon-wrapper" fill="#444444"><path fill="#444444" d="M8,0C5.8,0,4,1.8,4,4v1H2C1.4,5,1,5.4,1,6v9c0,0.6,0.4,1,1,1h12c0.6,0,1-0.4,1-1V6c0-0.6-0.4-1-1-1h-2V4 C12,1.8,10.2,0,8,0z M9,11.7V13H7v-1.3c-0.6-0.3-1-1-1-1.7c0-1.1,0.9-2,2-2s2,0.9,2,2C10,10.7,9.6,11.4,9,11.7z M10,5H6V4 c0-1.1,0.9-2,2-2s2,0.9,2,2V5z"/></g></g>

 <!-- icon name image-02--> 
<g transform="translate(4, 592)"><g class="nc-icon-wrapper" fill="#444444"><path fill="#444444" d="M15,16H1c-0.6,0-1-0.4-1-1V1c0-0.6,0.4-1,1-1h14c0.6,0,1,0.4,1,1v14C16,15.6,15.6,16,15,16z M2,14h12V2H2V14 z"/> <path data-color="color-2" fill="#444444" d="M6,4c0.6,0,1,0.4,1,1S6.6,6,6,6S5,5.6,5,5S5.4,4,6,4z"/> <polygon data-color="color-2" fill="#444444" points="3,12 5,8 7,10 10,6 13,12 "/></g></g>

 <!-- icon name heartbeat--> 
<g transform="translate(4, 608)"><g class="nc-icon-wrapper" fill="#444444"><path fill="#444444" d="M7.4,15.5C6.6,14.8,0,9.3,0,5.1c0-2.7,2.2-4.8,4.8-4.8C6,0.3,7.1,0.8,8,1.5c0.9-0.8,2-1.2,3.2-1.2 c2.7,0,4.8,2.2,4.8,4.8c0,4.2-6.6,9.7-7.4,10.3C8.3,15.8,7.7,15.8,7.4,15.5z M4.8,2.3C3.3,2.3,2,3.6,2,5.1c0,2.2,3.5,6,6,8.2 c2.1-1.9,6-5.8,6-8.2c0-1.6-1.3-2.8-2.8-2.8c-0.9,0-1.8,0.5-2.3,1.3c-0.4,0.6-1.3,0.6-1.7,0C6.6,2.8,5.8,2.3,4.8,2.3z"/></g></g>

 <!-- icon name heart-2--> 
<g transform="translate(4, 624)"><g class="nc-icon-wrapper" fill="#444444"><path fill="#444444" d="M14.682,2.318c-1.757-1.757-4.607-1.757-6.364,0C8.197,2.439,8.104,2.577,8,2.707 C7.896,2.577,7.803,2.439,7.682,2.318c-1.757-1.757-4.607-1.757-6.364,0c-1.757,1.757-1.757,4.607,0,6.364L8,15l6.682-6.318 C16.439,6.925,16.439,4.075,14.682,2.318z"/></g></g>

 <!-- icon name goal-64--> 
<g transform="translate(4, 640)"><g class="nc-icon-wrapper" fill="#444444"><path fill="#444444" d="M13,7l3-3l-3-1l-1-3L9,3l0.6,1.9l-1,1c-0.9-0.6-2-1-3.1-1C2.5,5,0,7.5,0,10.5S2.5,16,5.5,16s5.5-2.5,5.5-5.5 c0-1.2-0.4-2.2-1-3.1l1-1L13,7z M9,10.5C9,12.4,7.4,14,5.5,14S2,12.4,2,10.5S3.6,7,5.5,7c0.6,0,1.2,0.2,1.7,0.4L4.8,9.8 c-0.4,0.4-0.4,1,0,1.4c0.2,0.2,0.5,0.3,0.7,0.3s0.5-0.1,0.7-0.3l2.4-2.4C8.8,9.3,9,9.9,9,10.5z"/></g></g>

 <!-- icon name flag-points-31--> 
<g transform="translate(4, 656)"><g class="nc-icon-wrapper" fill="#444444"><path data-color="color-2" fill="#444444" d="M2,16c-0.6,0-1-0.4-1-1V1c0-0.6,0.4-1,1-1s1,0.4,1,1v14C3,15.6,2.6,16,2,16z"/> <polygon fill="#444444" points="15,10 5,10 5,2 15,2 13,6 "/></g></g>

 <!-- icon name favourite-31--> 
<g transform="translate(4, 672)"><g class="nc-icon-wrapper" fill="#444444"><path fill="#444444" d="M15.144,5.438l-4.316-0.627L8.897,0.9c-0.338-0.683-1.456-0.683-1.794,0l-1.93,3.911L0.856,5.438 C0.039,5.557-0.292,6.565,0.302,7.145l3.124,3.044l-0.737,4.299c-0.139,0.814,0.717,1.439,1.451,1.054L8,13.513l3.861,2.03 c0.728,0.381,1.591-0.234,1.451-1.054l-0.737-4.299l3.124-3.044C16.292,6.565,15.961,5.557,15.144,5.438z"/></g></g>

 <!-- icon name eye-19--> 
<g transform="translate(4, 688)"><g class="nc-icon-wrapper" fill="#444444"><path fill="#444444" d="M8,14c4.707,0,7.744-5.284,7.871-5.508c0.171-0.304,0.172-0.676,0.001-0.98C15.746,7.287,12.731,2,8,2 C3.245,2,0.251,7.289,0.126,7.514c-0.169,0.303-0.168,0.672,0.002,0.975C0.254,8.713,3.269,14,8,14z M8,4 c2.839,0,5.036,2.835,5.818,4C13.034,9.166,10.837,12,8,12c-2.841,0-5.038-2.838-5.819-4.001C2.958,6.835,5.146,4,8,4z"/> <circle data-color="color-2" fill="#444444" cx="8" cy="8" r="2"/></g></g>

 <!-- icon name email-84--> 
<g transform="translate(4, 704)"><g class="nc-icon-wrapper" fill="#444444"><path fill="#444444" d="M15,1H1C0.448,1,0,1.447,0,2v12c0,0.553,0.448,1,1,1h14c0.552,0,1-0.447,1-1V2C16,1.447,15.552,1,15,1z M14,13H2V6.723l5.504,3.145c0.308,0.176,0.685,0.176,0.992,0L14,6.723V13z M14,4.42L8,7.849L2,4.42V3h12V4.42z"/></g></g>

 <!-- icon name desktop--> 
<g transform="translate(4, 720)"><g class="nc-icon-wrapper" fill="#444444"><path fill="#444444" d="M15,0H1C0.4,0,0,0.4,0,1v11c0,0.6,0.4,1,1,1h5v1H3v2h10v-2h-3v-1h5c0.6,0,1-0.4,1-1V1C16,0.4,15.6,0,15,0z M14,2v7H2V2H14z"/></g></g>

 <!-- icon name cloud-download-95--> 
<g transform="translate(4, 736)"><g class="nc-icon-wrapper" fill="#444444"><path fill="#444444" d="M13,7.1c0,0,0-0.1,0-0.1c0-2.8-2.2-5-5-5C5.5,2,3.4,3.8,3.1,6.3C1.3,6.9,0,8.5,0,10.5C0,13,2,15,4.5,15 c1.7,0,5.9,0,7.5,0c2.2,0,4-1.8,4-4C16,9.1,14.7,7.6,13,7.1z M8,13L4,9h3V6h2v3h3L8,13z"/></g></g>

 <!-- icon name check-2--> 
<g transform="translate(4, 752)"><g class="nc-icon-wrapper" fill="#444444"><path fill="#444444" d="M14.3,2.3L5,11.6L1.7,8.3c-0.4-0.4-1-0.4-1.4,0s-0.4,1,0,1.4l4,4C4.5,13.9,4.7,14,5,14s0.5-0.1,0.7-0.3 l10-10c0.4-0.4,0.4-1,0-1.4S14.7,1.9,14.3,2.3z"/></g></g>

 <!-- icon name chat-46--> 
<g transform="translate(4, 768)"><g class="nc-icon-wrapper" fill="#444444"><path data-color="color-2" fill="#444444" d="M15,4h-1v6c0,0.552-0.448,1-1,1H6.828L5,13h5l3,3v-3h2c0.552,0,1-0.448,1-1V5 C16,4.448,15.552,4,15,4z"/> <path fill="#444444" d="M1,0h10c0.552,0,1,0.448,1,1v7c0,0.552-0.448,1-1,1H6l-3,3V9H1C0.448,9,0,8.552,0,8V1C0,0.448,0.448,0,1,0z"/></g></g>

 <!-- icon name chat-45-2--> 
<g transform="translate(4, 784)"><g class="nc-icon-wrapper" fill="#444444"><path fill="#444444" d="M1,0h14c0.552,0,1,0.448,1,1v10c0,0.552-0.448,1-1,1h-5l-6,4v-4H1c-0.552,0-1-0.448-1-1V1 C0,0.448,0.448,0,1,0z"/></g></g>

 <!-- icon name chart-bar-32--> 
<g transform="translate(4, 800)"><g class="nc-icon-wrapper" fill="#444444"><path fill="#444444" d="M9,0H7C6.4,0,6,0.4,6,1v14c0,0.6,0.4,1,1,1h2c0.6,0,1-0.4,1-1V1C10,0.4,9.6,0,9,0z"/> <path data-color="color-2" fill="#444444" d="M3,10H1c-0.6,0-1,0.4-1,1v4c0,0.6,0.4,1,1,1h2c0.6,0,1-0.4,1-1v-4C4,10.4,3.6,10,3,10z"/> <path data-color="color-2" fill="#444444" d="M15,5h-2c-0.6,0-1,0.4-1,1v9c0,0.6,0.4,1,1,1h2c0.6,0,1-0.4,1-1V6C16,5.4,15.6,5,15,5z"/></g></g>

 <!-- icon name cart-simple--> 
<g transform="translate(4, 816)"><g class="nc-icon-wrapper" fill="#444444"><path fill="#444444" d="M15,3H4.5L4,0.8C3.9,0.3,3.5,0,3,0H0v2h2.2L4,10.2C4.1,10.7,4.5,11,5,11h8c0.4,0,0.8-0.3,0.9-0.7l2-6 C16.1,3.8,15.8,3,15,3z"/> <circle data-color="color-2" fill="#444444" cx="5" cy="14" r="2"/> <circle data-color="color-2" fill="#444444" cx="13" cy="14" r="2"/></g></g>

 <!-- icon name calendar-add--> 
<g transform="translate(4, 832)"><g class="nc-icon-wrapper" fill="#444444"><path data-color="color-2" fill="#444444" d="M15,2h-2V0h-2v2H5V0H3v2H1C0.448,2,0,2.448,0,3v2h16V3C16,2.448,15.552,2,15,2z"/> <path fill="#444444" d="M0,6v9c0,0.6,0.4,1,1,1h14c0.6,0,1-0.4,1-1V6H0z M11,12H9v2H7v-2H5v-2h2V8h2v2h2V12z"/></g></g>

 <!-- icon name calendar-60--> 
<g transform="translate(4, 848)"><g class="nc-icon-wrapper" fill="#444444"><path fill="#444444" d="M15,2h-2V0h-3v2H6V0H3v2H1C0.448,2,0,2.448,0,3v12c0,0.552,0.448,1,1,1h14c0.552,0,1-0.448,1-1V3 C16,2.448,15.552,2,15,2z M14,14H2V7h12V14z"/></g></g>

 <!-- icon name bullet-list-67--> 
<g transform="translate(4, 864)"><g class="nc-icon-wrapper" fill="#444444"><circle data-color="color-2" fill="#444444" cx="2" cy="2" r="2"/> <rect x="6" y="1" fill="#444444" width="10" height="2"/> <circle data-color="color-2" fill="#444444" cx="2" cy="8" r="2"/> <rect x="6" y="7" fill="#444444" width="10" height="2"/> <circle data-color="color-2" fill="#444444" cx="2" cy="14" r="2"/> <rect x="6" y="13" fill="#444444" width="10" height="2"/></g></g>

 <!-- icon name block-down--> 
<g transform="translate(4, 880)"><g class="nc-icon-wrapper" fill="#444444"><rect data-color="color-2" fill="#444444" width="16" height="4"/> <path fill="#444444" d="M9,12.6V6H7v6.6l-3-3L2.6,11l4.7,4.7C7.5,15.9,7.7,16,8,16s0.5-0.1,0.7-0.3l4.7-4.7L12,9.6L9,12.6z"/></g></g>

 <!-- icon name bell-53--> 
<g transform="translate(4, 896)"><g class="nc-icon-wrapper" fill="#444444"><path data-color="color-2" fill="#444444" d="M10,14H6c0,1.1,0.9,2,2,2S10,15.1,10,14z"/> <path fill="#444444" d="M15,11h-0.5C13.8,10.3,13,9.3,13,8V5c0-2.8-2.2-5-5-5S3,2.2,3,5v3c0,1.3-0.8,2.3-1.5,3H1c-0.6,0-1,0.4-1,1 s0.4,1,1,1h14c0.6,0,1-0.4,1-1S15.6,11,15,11z"/></g></g>

 <!-- icon name attach-86--> 
<g transform="translate(4, 912)"><g class="nc-icon-wrapper" fill="#444444"><path fill="#444444" d="M5,5v4c0,1.7,1.3,3,3,3s3-1.3,3-3V4.5C11,2,9,0,6.5,0S2,2,2,4.5V10c0,3.3,2.7,6,6,6s6-2.7,6-6V4h-2v6 c0,2.2-1.8,4-4,4s-4-1.8-4-4V4.5C4,3.1,5.1,2,6.5,2S9,3.1,9,4.5V9c0,0.6-0.4,1-1,1S7,9.6,7,9V5H5z"/></g></g>

 <!-- icon name archive-check--> 
<g transform="translate(4, 928)"><g class="nc-icon-wrapper" fill="#444444"><path fill="#444444" d="M15,0H1C0.4,0,0,0.4,0,1v14c0,0.6,0.4,1,1,1h14c0.6,0,1-0.4,1-1V1C16,0.4,15.6,0,15,0z M14,2v9h-3 c-0.6,0-1,0.4-1,1v1H6v-1c0-0.6-0.4-1-1-1H2V2H14z"/> <path data-color="color-2" fill="#444444" d="M6.3,9.7c0.5,0.5,1,0.4,1.4,0l4-4c0.4-0.4,0.4-1,0-1.4c-0.4-0.4-1-0.4-1.4,0L7,7.6L5.7,6.3 c-0.4-0.4-1-0.4-1.4,0c-0.4,0.4-0.4,1,0,1.4L6.3,9.7z"/></g></g>

 <!-- icon name alert-circle-i--> 
<g transform="translate(4, 944)"><g class="nc-icon-wrapper" fill="#444444"><path fill="#444444" d="M8,0C3.6,0,0,3.6,0,8s3.6,8,8,8s8-3.6,8-8S12.4,0,8,0z M9,12H7V7h2V12z M8,6C7.4,6,7,5.6,7,5s0.4-1,1-1 s1,0.4,1,1S8.6,6,8,6z"/></g></g>

 <!-- icon name add-27--> 
<g transform="translate(4, 960)"><g class="nc-icon-wrapper" fill="#444444"><path fill="#444444" d="M7,9L7,9C4.8,9,3,7.2,3,5V4c0-2.2,1.8-4,4-4h0c2.2,0,4,1.8,4,4v1C11,7.2,9.2,9,7,9z"/> <path fill="#444444" d="M5,11c-2.8,0-5,2.2-5,5h8v-5H5z"/> <polygon data-color="color-2" fill="#444444" points="14,10 12,10 12,12 10,12 10,14 12,14 12,16 14,16 14,14 16,14 16,12 14,12 "/></g></g>

 <!-- icon name a-check--> 
<g transform="translate(4, 976)"><g class="nc-icon-wrapper" fill="#444444"><path fill="#444444" d="M7,14c0-1.531,0.578-2.924,1.522-3.984C8.348,10.011,8.18,10,8,10c-3.192,0-5.539,0.795-6.837,1.382 C0.45,11.705,0,12.417,0,13.2V16h7.349C7.127,15.374,7,14.702,7,14z"/> <circle fill="#444444" cx="8" cy="4" r="4"/> <path data-color="color-2" fill="#444444" d="M11,16c-0.256,0-0.512-0.098-0.707-0.293l-2-2l1.414-1.414L11,13.586l3.293-3.293 l1.414,1.414l-4,4C11.512,15.902,11.256,16,11,16z"/></g></g>

 <!-- icon name editNote--> 
<g transform="translate(2, 992)"><g class="nc-icon-wrapper" fill="#444444"><title>ui-16px-1_edit-71</title><g transform="translate(-806 -597) translate(806 597)" fill="#444444" stroke="none" stroke-width="1" fill-rule="evenodd"><path d="M15.7.3L4 12v4h4L19.7 4.3c.4-.4.4-1 0-1.4L17.1.3c-.4-.4-1-.4-1.4 0z"/><path d="M0 0h11v2H0z"/><path d="M0 4h6v2H0z"/><path d="M0 8h3v2H0z"/></g></g></g>

 <!-- icon name oneOnOne--> 
<g transform="translate(0, 1008)"><g class="nc-icon-wrapper" fill="#444444"><title>Icon - 1:1</title><g transform="translate(-932 -661) translate(932 657)" stroke="none" stroke-width="1" fill="none" fill-rule="evenodd"><path fill-opacity="0" fill="#444444" d="M0 0h24v24H0z"/><g transform="translate(0 4)" fill-rule="nonzero" fill="#444444"><path d="M16 8c0-4.4-3.6-8-8-8S0 3.6 0 8s3.6 8 8 8 8-3.6 8-8zM2 8c0-3.3 2.7-6 6-6s6 2.7 6 6-2.7 6-6 6-6-2.7-6-6z"/><path d="M24 8c0-4.4-3.6-8-8-8S8 3.6 8 8s3.6 8 8 8 8-3.6 8-8zM10 8c0-3.3 2.7-6 6-6s6 2.7 6 6-2.7 6-6 6-6-2.7-6-6z"/></g></g></g></g>

 <!-- icon name playScreen--> 
<g transform="translate(4, 1024)"><g class="nc-icon-wrapper" fill="#444444"><title>tech-16px_desktop</title><g transform="translate(-872 -725) translate(872 725)" fill="#444444" stroke="none" stroke-width="1" fill-rule="evenodd"><path d="M15 0H1C.4 0 0 .4 0 1v11c0 .6.4 1 1 1h5v1H3v2h10v-2h-3v-1h5c.6 0 1-.4 1-1V1c0-.6-.4-1-1-1zm-1 2v7H2V2h12z"/><path d="M6 3v5l5-2.5z"/></g></g></g>

 <!-- icon name power--> 
<g transform="translate(5, 1040)"><g class="nc-icon-wrapper" fill="#444444"><title>media-16px-1_button-power</title><g transform="translate(-1193 -725) translate(1193 725)" fill="#444444" stroke="none" stroke-width="1" fill-rule="evenodd"><path d="M6 0h2v6H6z"/><path d="M11.7 3.8c-.4-.4-1-.3-1.4.1-.4.4-.3 1 .1 1.4 1 .9 1.6 2.3 1.6 3.7 0 2.8-2.2 5-5 5s-5-2.2-5-5c0-1.4.6-2.8 1.7-3.7.4-.4.4-1 .1-1.4-.4-.4-1-.4-1.4-.1C.9 5.1 0 7 0 9c0 3.9 3.1 7 7 7s7-3.1 7-7c0-2-.8-3.9-2.3-5.2z"/></g></g></g>

 <!-- icon name chat-45--> 
<g transform="translate(4, 1056)"><g class="nc-icon-wrapper" fill="#444444"><title>chat-45</title><path d="M15.25.75H.75v10.5h3.333v3.25l4.334-3.25h6.833V.75z" transform="translate(-1024 -479) translate(1020 475) translate(4 4)" stroke="#444444" stroke-width="1.5" fill-rule="nonzero" fill="none"/></g></g>
</svg>